#tb 0: 1/10
0,          0,          0,        1,   192000, 0x9754890f
0,          1,          1,        1,   192000, 0x01668965
0,          2,          2,        1,   192000, 0xbd1b5e12
0,          3,          3,        1,   192000, 0x2e97fb9f
0,          4,          4,        1,   192000, 0xf8b452e2
0,          5,          5,        1,   192000, 0xc6859449
0,          6,          6,        1,   192000, 0x910844f7
0,          7,          7,        1,   192000, 0x99443581
0,          8,          8,        1,   192000, 0xec52d1e5
0,          9,          9,        1,   192000, 0x2fc66c35
0,         10,         10,        1,   192000, 0xd9af7379
0,         11,         11,        1,   192000, 0x947a26ef
0,         12,         12,        1,   192000, 0x7b77ab28
0,         13,         13,        1,   192000, 0x2507637e
0,         14,         14,        1,   192000, 0x6ce8c0ea
